STARTFONT 2.1
FONT -Adobe-Utopia-Regular-I-Normal--12-120-75-75-P-67-ISO8859-2
SIZE 12 75 75
FONTBOUNDINGBOX 16 13 -3 -3
STARTPROPERTIES 29
FOUNDRY "Adobe"
FAMILY_NAME "Utopia"
WEIGHT_NAME "Regular"
SLANT "I"
SETWIDTH_NAME "Normal"
ADD_STYLE_NAME ""
PIXEL_SIZE 12
POINT_SIZE 120
RESOLUTION_X 75
RESOLUTION_Y 75
SPACING "P"
AVERAGE_WIDTH 67
CHARSET_REGISTRY "ISO8859"
CHARSET_ENCODING "2"
CAP_HEIGHT 9
X_HEIGHT 6
RELATIVE_SETWIDTH 50
RELATIVE_WEIGHT 50
WEIGHT 130
FACE_NAME "Utopia Italic"
COPYRIGHT "Copyright (c) 1989, 1991 Adobe Systems Incorporated.  All rights reserved., Copyright 1996 Cub Soft"
NOTICE "Utopia is a registered trademark of Adobe Systems Incorporated."
DESTINATION 0
FONT_ASCENT 10
FONT_DESCENT 3
DEFAULT_CHAR 32
_ADOBE_PSFONT "Utopia-Italic"
_ADOBE_XFONT "-Adobe-Utopia-Regular-I-Normal--12-120-75-75-P-67-ISO8859-2"
_DEC_DEVICE_FONTNAMES "PS=Utopia-Italic"
ENDPROPERTIES
CHARS 191
STARTCHAR space
ENCODING 32
SWIDTH 225 0
DWIDTH 3 0
BBX 0 0 0 0
BITMAP
ENDCHAR
STARTCHAR exclam
ENCODING 33
SWIDTH 240 0
DWIDTH 3 0
BBX 2 9 0 0
BITMAP
40
40
40
40
80
80
80
00
80
ENDCHAR
STARTCHAR quotedbl
ENCODING 34
SWIDTH 402 0
DWIDTH 5 0
BBX 3 3 1 6
BITMAP
a0
a0
a0
ENDCHAR
STARTCHAR numbersign
ENCODING 35
SWIDTH 530 0
DWIDTH 6 0
BBX 6 8 0 1
BITMAP
28
28
7c
28
50
f8
50
50
ENDCHAR
STARTCHAR dollar
ENCODING 36
SWIDTH 530 0
DWIDTH 7 0
BBX 7 11 0 -1
BITMAP
04
1e
2a
48
70
38
1c
24
a8
f0
40
ENDCHAR
STARTCHAR percent
ENCODING 37
SWIDTH 826 0
DWIDTH 10 0
BBX 8 9 1 0
BITMAP
32
5e
94
a8
cb
15
29
2a
4c
ENDCHAR
STARTCHAR ampersand
ENCODING 38
SWIDTH 725 0
DWIDTH 9 0
BBX 8 9 0 0
BITMAP
18
24
24
28
51
89
8a
c4
7b
ENDCHAR
STARTCHAR apostrophe
ENCODING 39
SWIDTH 216 0
DWIDTH 3 0
BBX 2 3 0 6
BITMAP
40
40
80
ENDCHAR
STARTCHAR parenleft
ENCODING 40
SWIDTH 350 0
DWIDTH 4 0
BBX 4 11 0 -2
BITMAP
10
20
40
40
80
80
80
80
80
80
40
ENDCHAR
STARTCHAR parenright
ENCODING 41
SWIDTH 350 0
DWIDTH 4 0
BBX 4 11 -1 -2
BITMAP
20
10
10
10
10
10
10
20
20
40
80
ENDCHAR
STARTCHAR asterisk
ENCODING 42
SWIDTH 412 0
DWIDTH 5 0
BBX 5 5 0 4
BITMAP
20
a8
70
a8
20
ENDCHAR
STARTCHAR plus
ENCODING 43
SWIDTH 570 0
DWIDTH 7 0
BBX 5 5 1 1
BITMAP
20
20
f8
20
20
ENDCHAR
STARTCHAR comma
ENCODING 44
SWIDTH 265 0
DWIDTH 3 0
BBX 2 3 -1 -2
BITMAP
40
40
80
ENDCHAR
STARTCHAR minus
ENCODING 45
SWIDTH 570 0
DWIDTH 7 0
BBX 6 1 0 3
BITMAP
fc
ENDCHAR
STARTCHAR period
ENCODING 46
SWIDTH 265 0
DWIDTH 3 0
BBX 1 1 0 0
BITMAP
80
ENDCHAR
STARTCHAR slash
ENCODING 47
SWIDTH 270 0
DWIDTH 3 0
BBX 3 9 0 0
BITMAP
20
20
20
40
40
40
80
80
80
ENDCHAR
STARTCHAR zero
ENCODING 48
SWIDTH 530 0
DWIDTH 6 0
BBX 6 9 0 0
BITMAP
18
24
64
44
cc
88
98
90
60
ENDCHAR
STARTCHAR one
ENCODING 49
SWIDTH 530 0
DWIDTH 6 0
BBX 4 9 1 0
BITMAP
30
10
10
20
20
20
40
40
e0
ENDCHAR
STARTCHAR two
ENCODING 50
SWIDTH 530 0
DWIDTH 6 0
BBX 6 9 0 0
BITMAP
38
64
04
0c
18
60
c0
88
f8
ENDCHAR
STARTCHAR three
ENCODING 51
SWIDTH 530 0
DWIDTH 6 0
BBX 6 9 0 0
BITMAP
38
64
04
0c
38
08
08
d8
70
ENDCHAR
STARTCHAR four
ENCODING 52
SWIDTH 530 0
DWIDTH 6 0
BBX 5 9 0 0
BITMAP
10
30
28
68
48
90
f8
10
38
ENDCHAR
STARTCHAR five
ENCODING 53
SWIDTH 530 0
DWIDTH 6 0
BBX 6 9 0 0
BITMAP
3c
20
40
70
08
08
08
d8
70
ENDCHAR
STARTCHAR six
ENCODING 54
SWIDTH 530 0
DWIDTH 6 0
BBX 6 9 0 0
BITMAP
1c
24
40
70
c8
88
88
98
70
ENDCHAR
STARTCHAR seven
ENCODING 55
SWIDTH 530 0
DWIDTH 6 0
BBX 5 9 1 0
BITMAP
f8
88
10
20
60
40
c0
80
80
ENDCHAR
STARTCHAR eight
ENCODING 56
SWIDTH 530 0
DWIDTH 6 0
BBX 6 9 0 0
BITMAP
38
64
44
68
30
58
88
98
70
ENDCHAR
STARTCHAR nine
ENCODING 57
SWIDTH 530 0
DWIDTH 6 0
BBX 6 9 0 0
BITMAP
38
64
44
44
4c
38
08
90
e0
ENDCHAR
STARTCHAR colon
ENCODING 58
SWIDTH 265 0
DWIDTH 3 0
BBX 2 6 0 0
BITMAP
40
00
00
00
00
80
ENDCHAR
STARTCHAR semicolon
ENCODING 59
SWIDTH 265 0
DWIDTH 3 0
BBX 3 8 -1 -2
BITMAP
20
00
00
00
00
40
40
80
ENDCHAR
STARTCHAR less
ENCODING 60
SWIDTH 570 0
DWIDTH 7 0
BBX 6 5 0 1
BITMAP
0c
30
c0
30
0c
ENDCHAR
STARTCHAR equal
ENCODING 61
SWIDTH 570 0
DWIDTH 7 0
BBX 5 3 1 2
BITMAP
f8
00
f8
ENDCHAR
STARTCHAR greater
ENCODING 62
SWIDTH 570 0
DWIDTH 7 0
BBX 6 5 0 1
BITMAP
c0
30
0c
30
c0
ENDCHAR
STARTCHAR question
ENCODING 63
SWIDTH 425 0
DWIDTH 6 0
BBX 4 9 1 0
BITMAP
60
90
10
20
40
80
c0
00
80
ENDCHAR
STARTCHAR at
ENCODING 64
SWIDTH 794 0
DWIDTH 10 0
BBX 9 9 0 0
BITMAP
1e00
2100
4e80
9280
a480
ad00
b600
4000
3e00
ENDCHAR
STARTCHAR A
ENCODING 65
SWIDTH 624 0
DWIDTH 8 0
BBX 8 9 -1 0
BITMAP
04
0c
0c
14
12
3e
22
42
e7
ENDCHAR
STARTCHAR B
ENCODING 66
SWIDTH 632 0
DWIDTH 8 0
BBX 7 9 0 0
BITMAP
7c
22
22
26
3c
42
42
46
fc
ENDCHAR
STARTCHAR C
ENCODING 67
SWIDTH 661 0
DWIDTH 8 0
BBX 7 9 0 0
BITMAP
1e
62
40
c0
80
80
82
46
38
ENDCHAR
STARTCHAR D
ENCODING 68
SWIDTH 763 0
DWIDTH 9 0
BBX 8 9 0 0
BITMAP
7c
22
21
21
41
43
42
46
f8
ENDCHAR
STARTCHAR E
ENCODING 69
SWIDTH 596 0
DWIDTH 8 0
BBX 7 9 0 0
BITMAP
7e
22
20
24
3c
44
40
44
fc
ENDCHAR
STARTCHAR F
ENCODING 70
SWIDTH 571 0
DWIDTH 8 0
BBX 7 9 0 0
BITMAP
7e
22
20
24
7c
44
40
40
e0
ENDCHAR
STARTCHAR G
ENCODING 71
SWIDTH 709 0
DWIDTH 9 0
BBX 8 9 0 0
BITMAP
1e
62
40
c0
80
87
82
46
3c
ENDCHAR
STARTCHAR H
ENCODING 72
SWIDTH 775 0
DWIDTH 10 0
BBX 9 9 0 0
BITMAP
7380
2100
2100
2100
3e00
4200
4200
4200
e700
ENDCHAR
STARTCHAR I
ENCODING 73
SWIDTH 345 0
DWIDTH 4 0
BBX 4 9 0 0
BITMAP
70
20
20
20
40
40
40
40
e0
ENDCHAR
STARTCHAR J
ENCODING 74
SWIDTH 352 0
DWIDTH 4 0
BBX 5 11 -1 -2
BITMAP
38
10
10
10
10
20
20
20
20
20
c0
ENDCHAR
STARTCHAR K
ENCODING 75
SWIDTH 650 0
DWIDTH 8 0
BBX 8 9 0 0
BITMAP
77
22
24
28
50
48
48
44
e6
ENDCHAR
STARTCHAR L
ENCODING 76
SWIDTH 565 0
DWIDTH 7 0
BBX 6 9 0 0
BITMAP
70
20
20
20
40
40
40
44
fc
ENDCHAR
STARTCHAR M
ENCODING 77
SWIDTH 920 0
DWIDTH 12 0
BBX 11 9 0 0
BITMAP
60e0
20c0
3140
3240
52c0
5c80
4880
4880
e1c0
ENDCHAR
STARTCHAR N
ENCODING 78
SWIDTH 763 0
DWIDTH 10 0
BBX 9 9 0 0
BITMAP
6380
3100
3100
2900
4900
4600
4600
4200
e200
ENDCHAR
STARTCHAR O
ENCODING 79
SWIDTH 753 0
DWIDTH 9 0
BBX 8 9 0 0
BITMAP
1c
62
41
c1
81
83
82
46
38
ENDCHAR
STARTCHAR P
ENCODING 80
SWIDTH 614 0
DWIDTH 8 0
BBX 7 9 0 0
BITMAP
7c
22
22
22
46
7c
40
40
e0
ENDCHAR
STARTCHAR Q
ENCODING 81
SWIDTH 753 0
DWIDTH 9 0
BBX 8 12 0 -3
BITMAP
1c
62
41
c1
81
83
82
46
38
10
08
06
ENDCHAR
STARTCHAR R
ENCODING 82
SWIDTH 640 0
DWIDTH 8 0
BBX 7 9 0 0
BITMAP
7c
22
22
26
3c
48
44
44
e6
ENDCHAR
STARTCHAR S
ENCODING 83
SWIDTH 533 0
DWIDTH 7 0
BBX 6 9 0 0
BITMAP
3c
44
40
60
30
18
08
88
f0
ENDCHAR
STARTCHAR T
ENCODING 84
SWIDTH 606 0
DWIDTH 7 0
BBX 7 9 0 0
BITMAP
fe
92
10
10
20
20
20
20
70
ENDCHAR
STARTCHAR U
ENCODING 85
SWIDTH 794 0
DWIDTH 10 0
BBX 8 9 1 0
BITMAP
e7
42
42
42
84
84
84
cc
78
ENDCHAR
STARTCHAR V
ENCODING 86
SWIDTH 637 0
DWIDTH 8 0
BBX 8 9 0 0
BITMAP
e7
42
44
44
28
28
30
30
20
ENDCHAR
STARTCHAR W
ENCODING 87
SWIDTH 946 0
DWIDTH 12 0
BBX 12 9 0 0
BITMAP
e270
4620
4620
4a40
4a40
5280
3180
2100
2100
ENDCHAR
STARTCHAR X
ENCODING 88
SWIDTH 632 0
DWIDTH 9 0
BBX 8 9 0 0
BITMAP
77
22
14
14
18
28
24
44
ee
ENDCHAR
STARTCHAR Y
ENCODING 89
SWIDTH 591 0
DWIDTH 7 0
BBX 7 9 0 0
BITMAP
ee
44
48
50
20
20
40
40
e0
ENDCHAR
STARTCHAR Z
ENCODING 90
SWIDTH 622 0
DWIDTH 8 0
BBX 7 9 0 0
BITMAP
7e
42
04
08
10
20
40
84
fc
ENDCHAR
STARTCHAR bracketleft
ENCODING 91
SWIDTH 330 0
DWIDTH 4 0
BBX 4 11 0 -2
BITMAP
30
20
20
40
40
40
40
40
80
80
c0
ENDCHAR
STARTCHAR backslash
ENCODING 92
SWIDTH 390 0
DWIDTH 5 0
BBX 3 9 1 0
BITMAP
80
80
80
40
40
40
20
20
20
ENDCHAR
STARTCHAR bracketright
ENCODING 93
SWIDTH 330 0
DWIDTH 4 0
BBX 4 11 -1 -2
BITMAP
30
10
10
20
20
20
20
20
40
40
c0
ENDCHAR
STARTCHAR asciicircum
ENCODING 94
SWIDTH 570 0
DWIDTH 7 0
BBX 5 6 1 3
BITMAP
20
20
50
50
88
88
ENDCHAR
STARTCHAR underscore
ENCODING 95
SWIDTH 500 0
DWIDTH 6 0
BBX 6 1 0 -2
BITMAP
fc
ENDCHAR
STARTCHAR grave
ENCODING 96
SWIDTH 400 0
DWIDTH 5 0
BBX 2 2 1 7
BITMAP
80
40
ENDCHAR
STARTCHAR a
ENCODING 97
SWIDTH 561 0
DWIDTH 7 0
BBX 6 6 0 0
BITMAP
3c
44
cc
88
98
ec
ENDCHAR
STARTCHAR b
ENCODING 98
SWIDTH 559 0
DWIDTH 7 0
BBX 6 10 0 0
BITMAP
60
20
20
40
58
64
44
cc
88
f0
ENDCHAR
STARTCHAR c
ENCODING 99
SWIDTH 441 0
DWIDTH 6 0
BBX 6 6 0 0
BITMAP
38
4c
c0
80
88
70
ENDCHAR
STARTCHAR d
ENCODING 100
SWIDTH 587 0
DWIDTH 7 0
BBX 7 10 0 0
BITMAP
06
02
02
04
3c
44
cc
88
98
ec
ENDCHAR
STARTCHAR e
ENCODING 101
SWIDTH 453 0
DWIDTH 6 0
BBX 5 6 0 0
BITMAP
38
48
90
e0
80
70
ENDCHAR
STARTCHAR f
ENCODING 102
SWIDTH 315 0
DWIDTH 4 0
BBX 7 13 -2 -3
BITMAP
06
0a
08
08
3c
10
10
10
20
20
20
a0
c0
ENDCHAR
STARTCHAR g
ENCODING 103
SWIDTH 499 0
DWIDTH 6 0
BBX 7 9 -1 -3
BITMAP
1e
24
4c
58
20
38
4c
84
78
ENDCHAR
STARTCHAR h
ENCODING 104
SWIDTH 607 0
DWIDTH 8 0
BBX 7 10 0 0
BITMAP
60
20
20
40
4c
54
64
c8
8a
8c
ENDCHAR
STARTCHAR i
ENCODING 105
SWIDTH 317 0
DWIDTH 4 0
BBX 3 8 0 0
BITMAP
40
00
c0
40
40
80
a0
c0
ENDCHAR
STARTCHAR j
ENCODING 106
SWIDTH 309 0
DWIDTH 3 0
BBX 4 11 -2 -3
BITMAP
10
00
30
10
10
20
20
20
20
a0
c0
ENDCHAR
STARTCHAR k
ENCODING 107
SWIDTH 545 0
DWIDTH 7 0
BBX 6 10 0 0
BITMAP
60
20
20
44
4c
50
60
90
94
98
ENDCHAR
STARTCHAR l
ENCODING 108
SWIDTH 306 0
DWIDTH 4 0
BBX 3 10 0 0
BITMAP
60
20
20
40
40
40
40
80
a0
c0
ENDCHAR
STARTCHAR m
ENCODING 109
SWIDTH 912 0
DWIDTH 12 0
BBX 11 6 0 0
BITMAP
ccc0
5540
6640
cc80
88a0
88c0
ENDCHAR
STARTCHAR n
ENCODING 110
SWIDTH 618 0
DWIDTH 8 0
BBX 7 6 0 0
BITMAP
cc
54
64
c8
8a
8c
ENDCHAR
STARTCHAR o
ENCODING 111
SWIDTH 537 0
DWIDTH 7 0
BBX 6 6 0 0
BITMAP
38
44
c4
8c
88
70
ENDCHAR
STARTCHAR p
ENCODING 112
SWIDTH 590 0
DWIDTH 7 0
BBX 7 9 -1 -3
BITMAP
6c
32
22
66
44
78
80
80
80
ENDCHAR
STARTCHAR q
ENCODING 113
SWIDTH 559 0
DWIDTH 7 0
BBX 6 10 0 -3
BITMAP
04
3c
44
cc
88
98
e8
10
10
10
ENDCHAR
STARTCHAR r
ENCODING 114
SWIDTH 402 0
DWIDTH 5 0
BBX 5 6 0 0
BITMAP
d8
68
40
c0
80
80
ENDCHAR
STARTCHAR s
ENCODING 115
SWIDTH 389 0
DWIDTH 6 0
BBX 5 6 0 0
BITMAP
38
48
60
30
90
e0
ENDCHAR
STARTCHAR t
ENCODING 116
SWIDTH 341 0
DWIDTH 4 0
BBX 4 8 0 0
BITMAP
40
40
f0
40
c0
80
a0
c0
ENDCHAR
STARTCHAR u
ENCODING 117
SWIDTH 618 0
DWIDTH 8 0
BBX 7 6 0 0
BITMAP
c4
44
4c
98
aa
cc
ENDCHAR
STARTCHAR v
ENCODING 118
SWIDTH 510 0
DWIDTH 6 0
BBX 5 6 0 0
BITMAP
c8
48
c8
88
90
60
ENDCHAR
STARTCHAR w
ENCODING 119
SWIDTH 785 0
DWIDTH 10 0
BBX 8 6 1 0
BITMAP
c9
49
d9
91
92
6c
ENDCHAR
STARTCHAR x
ENCODING 120
SWIDTH 516 0
DWIDTH 7 0
BBX 6 6 0 0
BITMAP
64
28
30
30
54
98
ENDCHAR
STARTCHAR y
ENCODING 121
SWIDTH 468 0
DWIDTH 6 0
BBX 7 9 -2 -3
BITMAP
32
12
14
14
18
10
10
a0
c0
ENDCHAR
STARTCHAR z
ENCODING 122
SWIDTH 468 0
DWIDTH 6 0
BBX 5 6 0 0
BITMAP
78
90
20
40
88
f0
ENDCHAR
STARTCHAR braceleft
ENCODING 123
SWIDTH 340 0
DWIDTH 4 0
BBX 4 11 0 -2
BITMAP
10
20
20
40
80
40
40
80
80
80
40
ENDCHAR
STARTCHAR bar
ENCODING 124
SWIDTH 270 0
DWIDTH 3 0
BBX 1 9 1 0
BITMAP
80
80
80
80
80
80
80
80
80
ENDCHAR
STARTCHAR braceright
ENCODING 125
SWIDTH 340 0
DWIDTH 4 0
BBX 4 11 -1 -2
BITMAP
20
10
10
20
20
10
20
40
40
40
80
ENDCHAR
STARTCHAR asciitilde
ENCODING 126
SWIDTH 570 0
DWIDTH 7 0
BBX 6 2 0 3
BITMAP
74
98
ENDCHAR
STARTCHAR nobreakspace
ENCODING 160
SWIDTH 225 0
DWIDTH 3 0
BBX 0 0 0 0
BITMAP
ENDCHAR
STARTCHAR Aogonek
ENCODING 161
SWIDTH 624 0
DWIDTH 8 0
BBX 8 12 -1 -3
BITMAP
04
0c
0c
14
12
3e
22
42
e7
08
10
18
ENDCHAR
STARTCHAR breve
ENCODING 162
SWIDTH 400 0
DWIDTH 5 0
BBX 4 2 0 7
BITMAP
90
60
ENDCHAR
STARTCHAR Lstroke
ENCODING 163
SWIDTH 571 0
DWIDTH 7 0
BBX 6 9 0 0
BITMAP
70
20
20
30
c0
40
40
44
fc
ENDCHAR
STARTCHAR currency
ENCODING 164
SWIDTH 530 0
DWIDTH 6 0
BBX 5 7 0 1
BITMAP
88
70
88
88
88
70
88
ENDCHAR
STARTCHAR Lcaron
ENCODING 165
SWIDTH 640 0
DWIDTH 8 0
BBX 7 10 0 0
BITMAP
02
72
24
20
20
40
40
40
44
fc
ENDCHAR
STARTCHAR Sacute
ENCODING 166
SWIDTH 533 0
DWIDTH 7 0
BBX 6 12 0 0
BITMAP
08
10
00
3c
44
40
60
30
18
08
88
f0
ENDCHAR
STARTCHAR section
ENCODING 167
SWIDTH 530 0
DWIDTH 7 0
BBX 6 11 0 -2
BITMAP
1c
24
60
90
88
44
24
14
18
90
e0
ENDCHAR
STARTCHAR diaeresis
ENCODING 168
SWIDTH 400 0
DWIDTH 5 0
BBX 3 1 0 7
BITMAP
a0
ENDCHAR
STARTCHAR Scaron
ENCODING 169
SWIDTH 533 0
DWIDTH 7 0
BBX 6 12 0 0
BITMAP
28
10
00
3c
44
40
60
30
18
08
88
f0
ENDCHAR
STARTCHAR Scedilla
ENCODING 170
SWIDTH 533 0
DWIDTH 7 0
BBX 6 12 0 -3
BITMAP
3c
44
40
60
30
18
08
88
f0
20
10
60
ENDCHAR
STARTCHAR Tcaron
ENCODING 171
SWIDTH 606 0
DWIDTH 7 0
BBX 7 12 0 0
BITMAP
28
10
00
fe
92
10
10
20
20
20
20
70
ENDCHAR
STARTCHAR Zacute
ENCODING 172
SWIDTH 622 0
DWIDTH 8 0
BBX 7 12 0 0
BITMAP
08
10
00
7e
42
04
08
10
20
40
84
fc
ENDCHAR
STARTCHAR hyphen
ENCODING 173
SWIDTH 392 0
DWIDTH 5 0
BBX 3 1 1 3
BITMAP
e0
ENDCHAR
STARTCHAR Zcaron
ENCODING 174
SWIDTH 622 0
DWIDTH 8 0
BBX 7 12 0 0
BITMAP
28
10
00
7e
42
04
08
10
20
40
84
fc
ENDCHAR
STARTCHAR Zabovedot
ENCODING 175
SWIDTH 622 0
DWIDTH 8 0
BBX 7 11 0 0
BITMAP
10
00
7e
42
04
08
10
20
40
84
fc
ENDCHAR
STARTCHAR degree
ENCODING 176
SWIDTH 400 0
DWIDTH 5 0
BBX 4 4 1 5
BITMAP
60
90
90
60
ENDCHAR
STARTCHAR aogonek
ENCODING 177
SWIDTH 561 0
DWIDTH 7 0
BBX 6 9 0 -3
BITMAP
3c
44
cc
88
98
ec
10
20
30
ENDCHAR
STARTCHAR ogonek
ENCODING 178
SWIDTH 350 0
DWIDTH 4 0
BBX 2 3 0 -3
BITMAP
40
80
c0
ENDCHAR
STARTCHAR lstroke
ENCODING 179
SWIDTH 318 0
DWIDTH 4 0
BBX 4 10 0 0
BITMAP
60
20
20
40
70
c0
40
80
a0
c0
ENDCHAR
STARTCHAR acute
ENCODING 180
SWIDTH 400 0
DWIDTH 5 0
BBX 2 2 1 7
BITMAP
40
80
ENDCHAR
STARTCHAR lcaron
ENCODING 181
SWIDTH 560 0
DWIDTH 7 0
BBX 6 11 0 0
BITMAP
04
64
28
20
40
40
40
40
80
a0
c0
ENDCHAR
STARTCHAR sacute
ENCODING 182
SWIDTH 389 0
DWIDTH 6 0
BBX 5 9 0 0
BITMAP
10
20
00
38
48
60
30
90
e0
ENDCHAR
STARTCHAR caron
ENCODING 183
SWIDTH 400 0
DWIDTH 5 0
BBX 3 2 1 7
BITMAP
a0
40
ENDCHAR
STARTCHAR cedilla
ENCODING 184
SWIDTH 400 0
DWIDTH 5 0
BBX 3 3 0 -3
BITMAP
40
20
c0
ENDCHAR
STARTCHAR scaron
ENCODING 185
SWIDTH 389 0
DWIDTH 6 0
BBX 5 9 0 0
BITMAP
50
20
00
38
48
60
30
90
e0
ENDCHAR
STARTCHAR scedilla
ENCODING 186
SWIDTH 389 0
DWIDTH 6 0
BBX 5 9 0 -3
BITMAP
38
48
60
30
90
e0
20
10
60
ENDCHAR
STARTCHAR tcaron
ENCODING 187
SWIDTH 400 0
DWIDTH 5 0
BBX 5 10 0 0
BITMAP
08
08
50
40
f0
40
c0
80
a0
c0
ENDCHAR
STARTCHAR zacute
ENCODING 188
SWIDTH 468 0
DWIDTH 6 0
BBX 5 9 0 0
BITMAP
10
20
00
78
90
20
40
88
f0
ENDCHAR
STARTCHAR doubleacute
ENCODING 189
SWIDTH 400 0
DWIDTH 5 0
BBX 4 2 0 7
BITMAP
50
a0
ENDCHAR
STARTCHAR zcaron
ENCODING 190
SWIDTH 468 0
DWIDTH 6 0
BBX 5 9 0 0
BITMAP
50
20
00
78
90
20
40
88
f0
ENDCHAR
STARTCHAR zabovedot
ENCODING 191
SWIDTH 468 0
DWIDTH 6 0
BBX 5 8 0 0
BITMAP
20
00
78
90
20
40
88
f0
ENDCHAR
STARTCHAR Racute
ENCODING 192
SWIDTH 640 0
DWIDTH 8 0
BBX 7 12 0 0
BITMAP
08
10
00
7c
22
22
26
3c
48
44
44
e6
ENDCHAR
STARTCHAR Aacute
ENCODING 193
SWIDTH 624 0
DWIDTH 8 0
BBX 8 10 -1 0
BITMAP
02
04
00
04
0c
14
12
3e
42
e7
ENDCHAR
STARTCHAR Acircumflex
ENCODING 194
SWIDTH 624 0
DWIDTH 8 0
BBX 8 10 -1 0
BITMAP
04
0a
00
04
0c
14
12
3e
42
e7
ENDCHAR
STARTCHAR Abreve
ENCODING 195
SWIDTH 624 0
DWIDTH 8 0
BBX 8 12 -1 0
BITMAP
12
0c
00
04
0c
0c
14
12
3e
22
42
e7
ENDCHAR
STARTCHAR Adiaeresis
ENCODING 196
SWIDTH 624 0
DWIDTH 8 0
BBX 8 9 -1 0
BITMAP
0a
00
04
0c
14
12
3e
42
e7
ENDCHAR
STARTCHAR Lacute
ENCODING 197
SWIDTH 565 0
DWIDTH 7 0
BBX 6 12 0 0
BITMAP
10
20
00
70
20
20
20
40
40
40
44
fc
ENDCHAR
STARTCHAR Cacute
ENCODING 198
SWIDTH 661 0
DWIDTH 8 0
BBX 7 12 0 0
BITMAP
08
10
00
1e
62
40
c0
80
80
82
46
38
ENDCHAR
STARTCHAR Ccedilla
ENCODING 199
SWIDTH 661 0
DWIDTH 8 0
BBX 7 12 0 -3
BITMAP
1e
62
40
c0
80
80
82
46
38
10
08
30
ENDCHAR
STARTCHAR Ccaron
ENCODING 200
SWIDTH 661 0
DWIDTH 8 0
BBX 7 12 0 0
BITMAP
28
10
00
1e
62
40
c0
80
80
82
46
38
ENDCHAR
STARTCHAR Eacute
ENCODING 201
SWIDTH 596 0
DWIDTH 8 0
BBX 7 10 0 0
BITMAP
04
08
00
7e
22
20
78
40
44
fc
ENDCHAR
STARTCHAR Eogonek
ENCODING 202
SWIDTH 596 0
DWIDTH 8 0
BBX 7 12 0 -3
BITMAP
7e
22
20
24
3c
44
40
44
fc
08
10
18
ENDCHAR
STARTCHAR Ediaeresis
ENCODING 203
SWIDTH 596 0
DWIDTH 8 0
BBX 7 9 0 0
BITMAP
14
00
7e
22
20
78
40
44
fc
ENDCHAR
STARTCHAR Ecaron
ENCODING 204
SWIDTH 596 0
DWIDTH 8 0
BBX 7 12 0 0
BITMAP
28
10
00
7e
22
20
24
3c
44
40
44
fc
ENDCHAR
STARTCHAR Iacute
ENCODING 205
SWIDTH 345 0
DWIDTH 4 0
BBX 4 10 0 0
BITMAP
10
20
00
70
20
20
40
40
40
e0
ENDCHAR
STARTCHAR Icircumflex
ENCODING 206
SWIDTH 345 0
DWIDTH 4 0
BBX 4 10 0 0
BITMAP
20
50
00
70
20
20
40
40
40
e0
ENDCHAR
STARTCHAR Dcaron
ENCODING 207
SWIDTH 763 0
DWIDTH 9 0
BBX 8 12 0 0
BITMAP
28
10
00
7c
22
21
21
41
43
42
46
f8
ENDCHAR
STARTCHAR Dstroke
ENCODING 208
SWIDTH 770 0
DWIDTH 9 0
BBX 8 9 0 0
BITMAP
7c
22
21
21
f1
43
42
46
f8
ENDCHAR
STARTCHAR Nacute
ENCODING 209
SWIDTH 763 0
DWIDTH 10 0
BBX 9 12 0 0
BITMAP
0400
0800
0000
6380
3100
3100
2900
4900
4600
4600
4200
e200
ENDCHAR
STARTCHAR Ncaron
ENCODING 210
SWIDTH 763 0
DWIDTH 10 0
BBX 9 12 0 0
BITMAP
1400
0800
0000
6380
3100
3100
2900
4900
4600
4600
4200
e200
ENDCHAR
STARTCHAR Oacute
ENCODING 211
SWIDTH 753 0
DWIDTH 9 0
BBX 8 10 0 0
BITMAP
04
08
00
1e
63
c1
81
83
c6
78
ENDCHAR
STARTCHAR Ocircumflex
ENCODING 212
SWIDTH 753 0
DWIDTH 9 0
BBX 8 10 0 0
BITMAP
08
14
00
1e
63
c1
81
83
c6
78
ENDCHAR
STARTCHAR Odoubleacute
ENCODING 213
SWIDTH 753 0
DWIDTH 9 0
BBX 8 12 0 0
BITMAP
14
28
00
1c
62
41
c1
81
83
82
46
38
ENDCHAR
STARTCHAR Odiaeresis
ENCODING 214
SWIDTH 753 0
DWIDTH 9 0
BBX 8 9 0 0
BITMAP
0a
00
1e
63
c1
81
83
c6
78
ENDCHAR
STARTCHAR multiply
ENCODING 215
SWIDTH 570 0
DWIDTH 7 0
BBX 5 5 1 1
BITMAP
88
50
20
50
88
ENDCHAR
STARTCHAR Rcaron
ENCODING 216
SWIDTH 640 0
DWIDTH 8 0
BBX 7 12 0 0
BITMAP
28
10
00
7c
22
22
26
3c
48
44
44
e6
ENDCHAR
STARTCHAR Uring
ENCODING 217
SWIDTH 794 0
DWIDTH 10 0
BBX 8 13 1 0
BITMAP
10
28
10
00
e7
42
42
42
84
84
84
cc
78
ENDCHAR
STARTCHAR Uacute
ENCODING 218
SWIDTH 794 0
DWIDTH 10 0
BBX 8 10 1 0
BITMAP
04
08
00
e7
42
42
84
84
cc
78
ENDCHAR
STARTCHAR Udoubleacute
ENCODING 219
SWIDTH 794 0
DWIDTH 10 0
BBX 8 12 1 0
BITMAP
14
28
00
e7
42
42
42
84
84
84
cc
78
ENDCHAR
STARTCHAR Udiaeresis
ENCODING 220
SWIDTH 794 0
DWIDTH 10 0
BBX 8 9 1 0
BITMAP
14
00
e7
42
42
84
84
cc
78
ENDCHAR
STARTCHAR Yacute
ENCODING 221
SWIDTH 591 0
DWIDTH 7 0
BBX 7 10 0 0
BITMAP
08
10
00
ee
44
48
50
20
40
e0
ENDCHAR
STARTCHAR Tcedilla
ENCODING 222
SWIDTH 606 0
DWIDTH 7 0
BBX 7 12 0 -3
BITMAP
fe
92
10
10
20
20
20
20
70
10
08
30
ENDCHAR
STARTCHAR ssharp
ENCODING 223
SWIDTH 577 0
DWIDTH 7 0
BBX 9 13 -2 -3
BITMAP
0300
0480
0880
1900
0a00
1300
1100
1100
2b00
2e00
2000
a000
c000
ENDCHAR
STARTCHAR racute
ENCODING 224
SWIDTH 402 0
DWIDTH 5 0
BBX 5 9 0 0
BITMAP
10
20
00
d8
68
40
c0
80
80
ENDCHAR
STARTCHAR aacute
ENCODING 225
SWIDTH 561 0
DWIDTH 7 0
BBX 6 9 0 0
BITMAP
08
10
00
3c
44
cc
88
98
ec
ENDCHAR
STARTCHAR acircumflex
ENCODING 226
SWIDTH 561 0
DWIDTH 7 0
BBX 6 9 0 0
BITMAP
10
28
00
3c
44
cc
88
98
ec
ENDCHAR
STARTCHAR abreve
ENCODING 227
SWIDTH 561 0
DWIDTH 7 0
BBX 6 9 0 0
BITMAP
24
18
00
3c
44
cc
88
98
ec
ENDCHAR
STARTCHAR adiaeresis
ENCODING 228
SWIDTH 561 0
DWIDTH 7 0
BBX 6 8 0 0
BITMAP
28
00
3c
44
cc
88
98
ec
ENDCHAR
STARTCHAR lacute
ENCODING 229
SWIDTH 306 0
DWIDTH 4 0
BBX 4 13 0 0
BITMAP
10
20
00
60
20
20
40
40
40
40
80
a0
c0
ENDCHAR
STARTCHAR cacute
ENCODING 230
SWIDTH 441 0
DWIDTH 6 0
BBX 6 9 0 0
BITMAP
08
10
00
38
4c
c0
80
88
70
ENDCHAR
STARTCHAR ccedilla
ENCODING 231
SWIDTH 441 0
DWIDTH 6 0
BBX 6 9 0 -3
BITMAP
38
4c
c0
80
88
70
20
10
60
ENDCHAR
STARTCHAR ccaron
ENCODING 232
SWIDTH 441 0
DWIDTH 6 0
BBX 6 9 0 0
BITMAP
28
10
00
38
4c
c0
80
88
70
ENDCHAR
STARTCHAR eacute
ENCODING 233
SWIDTH 453 0
DWIDTH 6 0
BBX 5 9 0 0
BITMAP
08
10
00
38
48
90
e0
80
70
ENDCHAR
STARTCHAR eogonek
ENCODING 234
SWIDTH 453 0
DWIDTH 6 0
BBX 5 9 0 -3
BITMAP
38
48
90
e0
80
70
10
20
30
ENDCHAR
STARTCHAR ediaeresis
ENCODING 235
SWIDTH 453 0
DWIDTH 6 0
BBX 5 8 0 0
BITMAP
28
00
38
48
90
e0
80
70
ENDCHAR
STARTCHAR ecaron
ENCODING 236
SWIDTH 453 0
DWIDTH 6 0
BBX 5 9 0 0
BITMAP
50
20
00
38
48
90
e0
80
70
ENDCHAR
STARTCHAR iacute
ENCODING 237
SWIDTH 317 0
DWIDTH 4 0
BBX 3 9 0 0
BITMAP
20
40
00
c0
40
40
80
a0
c0
ENDCHAR
STARTCHAR icircumflex
ENCODING 238
SWIDTH 317 0
DWIDTH 4 0
BBX 3 9 0 0
BITMAP
40
a0
00
c0
40
40
80
a0
c0
ENDCHAR
STARTCHAR dcaron
ENCODING 239
SWIDTH 800 0
DWIDTH 10 0
BBX 10 11 0 0
BITMAP
0040
0640
0280
0200
0400
3c00
4400
cc00
8800
9800
ec00
ENDCHAR
STARTCHAR dstroke
ENCODING 240
SWIDTH 720 0
DWIDTH 9 0
BBX 9 10 0 0
BITMAP
0600
0200
1f80
0400
3c00
4400
cc00
8800
9800
ec00
ENDCHAR
STARTCHAR nacute
ENCODING 241
SWIDTH 618 0
DWIDTH 8 0
BBX 7 9 0 0
BITMAP
10
20
00
cc
54
64
c8
8a
8c
ENDCHAR
STARTCHAR ncaron
ENCODING 242
SWIDTH 618 0
DWIDTH 8 0
BBX 7 9 0 0
BITMAP
50
20
00
cc
54
64
c8
8a
8c
ENDCHAR
STARTCHAR oacute
ENCODING 243
SWIDTH 537 0
DWIDTH 7 0
BBX 6 9 0 0
BITMAP
04
08
00
38
44
c4
8c
88
70
ENDCHAR
STARTCHAR ocircumflex
ENCODING 244
SWIDTH 537 0
DWIDTH 7 0
BBX 6 9 0 0
BITMAP
10
28
00
38
44
c4
8c
88
70
ENDCHAR
STARTCHAR odoubleacute
ENCODING 245
SWIDTH 537 0
DWIDTH 7 0
BBX 6 9 0 0
BITMAP
14
28
00
38
44
c4
8c
88
70
ENDCHAR
STARTCHAR odiaeresis
ENCODING 246
SWIDTH 537 0
DWIDTH 7 0
BBX 6 8 0 0
BITMAP
28
00
38
44
c4
8c
88
70
ENDCHAR
STARTCHAR division
ENCODING 247
SWIDTH 570 0
DWIDTH 7 0
BBX 5 5 1 1
BITMAP
20
00
f8
00
20
ENDCHAR
STARTCHAR rcaron
ENCODING 248
SWIDTH 402 0
DWIDTH 5 0
BBX 5 9 0 0
BITMAP
50
20
00
d8
68
40
c0
80
80
ENDCHAR
STARTCHAR uring
ENCODING 249
SWIDTH 618 0
DWIDTH 8 0
BBX 7 10 0 0
BITMAP
20
50
20
00
c4
44
4c
98
aa
cc
ENDCHAR
STARTCHAR uacute
ENCODING 250
SWIDTH 618 0
DWIDTH 8 0
BBX 7 9 0 0
BITMAP
08
10
00
c4
44
4c
98
aa
cc
ENDCHAR
STARTCHAR udoubleacute
ENCODING 251
SWIDTH 618 0
DWIDTH 8 0
BBX 7 9 0 0
BITMAP
28
50
00
c4
44
4c
98
aa
cc
ENDCHAR
STARTCHAR udiaeresis
ENCODING 252
SWIDTH 618 0
DWIDTH 8 0
BBX 7 8 0 0
BITMAP
28
00
c4
44
4c
98
aa
cc
ENDCHAR
STARTCHAR yacute
ENCODING 253
SWIDTH 468 0
DWIDTH 6 0
BBX 7 12 -2 -3
BITMAP
02
04
00
32
12
14
14
18
10
10
a0
c0
ENDCHAR
STARTCHAR tcedilla
ENCODING 254
SWIDTH 341 0
DWIDTH 4 0
BBX 4 11 0 -3
BITMAP
40
40
f0
40
c0
80
a0
c0
40
20
c0
ENDCHAR
STARTCHAR abovedot
ENCODING 255
SWIDTH 402 0
DWIDTH 5 0
BBX 1 1 1 7
BITMAP
80
ENDCHAR
ENDFONT
